<svg version="1.1" id="Layer_1" xmlns="http://www.w3.org/2000/svg" xmlns:xlink="http://www.w3.org/1999/xlink" x="0px" y="0px"
	 width="100%" viewBox="0 0 1044 548" enable-background="new 0 0 1044 548" xml:space="preserve">
<path fill="#FFFFFF" opacity="1.000000" stroke="none" 
	d="
M699.000000,549.000000 
	C466.000000,549.000000 233.500000,549.000000 1.000000,549.000000 
	C1.000000,366.333344 1.000000,183.666672 1.000000,1.000000 
	C349.000000,1.000000 697.000000,1.000000 1045.000000,1.000000 
	C1045.000000,183.666672 1045.000000,366.333344 1045.000000,549.000000 
	C929.833313,549.000000 814.666687,549.000000 699.000000,549.000000 
M200.216034,291.833954 
	C186.837463,271.169556 173.483078,250.489349 160.019119,229.880722 
	C159.225449,228.665894 157.583099,227.307480 156.277115,227.245224 
	C150.351151,226.962799 144.404175,227.121582 138.294373,227.121582 
	C138.294373,255.943573 138.294373,284.153473 138.294373,312.510925 
	C142.314865,312.510925 146.029724,312.510925 150.083435,312.510925 
	C150.083435,287.322632 150.083435,262.496765 150.083435,236.120010 
	C152.741852,241.047134 154.412170,244.816254 156.661102,248.200943 
	C170.384476,268.854980 184.217377,289.436554 198.104721,309.980774 
	C198.936081,311.210632 200.484909,312.591980 201.817535,312.725098 
	C205.556000,313.098602 209.356079,312.855316 213.348724,312.855316 
	C213.348724,284.045868 213.348724,255.834366 213.348724,227.473434 
	C209.146362,227.473434 205.266571,227.473434 201.330795,227.473434 
	C201.330795,249.116302 201.330795,270.397522 201.055710,291.951752 
	C201.055710,291.951752 200.784988,292.229034 200.216034,291.833954 
M903.012695,272.482483 
	C902.876770,267.491364 903.204285,262.437103 902.534363,257.518738 
	C894.361328,197.515472 842.047241,157.587616 782.098938,166.113022 
	C729.216309,173.633575 686.784058,222.308426 693.521729,281.480621 
	C700.412231,341.995911 753.573059,382.186035 813.976929,373.970184 
	C863.062439,367.293793 902.803345,322.436554 903.012695,272.482483 
M416.010529,267.496613 
	C416.184570,255.907959 412.790894,245.530289 403.589478,238.250229 
	C398.634674,234.330032 392.622650,231.007797 386.559784,229.371490 
	C371.310333,225.255798 355.613251,227.633362 339.988953,227.047028 
	C339.988953,256.088348 339.988953,284.300690 339.988953,312.877472 
	C349.210510,312.877472 358.021912,312.942139 366.831451,312.844208 
	C370.151245,312.807343 373.490784,312.570465 376.780487,312.123962 
	C400.196686,308.945801 415.305878,292.080627 416.010529,267.496613 
M233.819534,280.609131 
	C235.043182,288.390900 238.262054,295.286774 243.706787,300.928528 
	C255.414017,313.059387 269.958832,316.365570 285.861206,312.564484 
	C302.383270,308.615295 313.230957,297.849182 317.911011,281.501862 
	C323.757812,261.078918 316.394653,240.599869 300.225159,231.903076 
	C283.813110,223.075806 267.370728,223.631592 252.149963,234.282166 
	C236.492905,245.238022 231.100311,261.051849 233.819534,280.609131 
M435.218933,247.500229 
	C435.220184,258.822601 435.095642,270.146820 435.260345,281.466827 
	C435.406769,291.530640 438.176056,300.983643 446.507355,307.080261 
	C458.534607,315.881439 472.020111,316.458801 485.285767,310.090118 
	C497.618378,304.169434 502.876038,293.408295 502.937256,280.000153 
	C503.010223,264.015961 502.963379,248.031158 502.944336,232.046661 
	C502.942444,230.466690 502.772736,228.886917 502.687073,227.412994 
	C498.286530,227.412994 494.521790,227.412994 490.212494,227.412994 
	C490.212494,229.507935 490.213409,231.295151 490.212311,233.082382 
	C490.201904,249.899307 490.393341,266.719574 490.116333,283.532104 
	C489.895905,296.911011 481.174408,304.383972 467.980377,303.137115 
	C457.446808,302.141693 450.096344,293.521057 449.993286,281.579773 
	C449.852509,265.263428 449.962585,248.944992 449.942596,232.627487 
	C449.940460,230.875732 449.788818,229.124176 449.707275,227.387390 
	C444.673798,227.387390 440.246002,227.387390 435.219269,227.387390 
	C435.219269,233.941315 435.219269,240.220917 435.218933,247.500229 
M540.933411,295.423767 
	C540.933411,288.309418 540.933411,281.195068 540.933411,273.764069 
	C543.167175,273.658813 544.788635,273.522644 546.410645,273.516479 
	C553.069458,273.491150 559.730957,273.398804 566.386292,273.553528 
	C569.374451,273.622955 571.164062,272.867340 571.299744,269.553650 
	C571.378723,267.624969 571.825806,265.711365 572.205811,263.118103 
	C561.557678,263.118103 551.496399,263.118103 541.222961,263.118103 
	C541.222961,254.450943 541.222961,246.387970 541.222961,237.716476 
	C543.282043,237.716476 545.058960,237.716507 546.835876,237.716476 
	C555.492493,237.716339 564.150574,237.796021 572.804077,237.633118 
	C574.160461,237.607590 576.324585,236.781494 576.680115,235.803696 
	C577.604248,233.262619 577.729492,230.431030 578.204834,227.523743 
	C560.515320,227.523743 543.502075,227.523743 526.571472,227.523743 
	C526.571472,256.156128 526.571472,284.354980 526.571472,312.890961 
	C542.948242,312.890961 558.911743,312.916931 574.874634,312.823914 
	C575.793762,312.818604 577.325562,312.007477 577.513977,311.292542 
	C578.246582,308.512482 578.551880,305.619843 579.099121,302.259125 
	C572.177734,302.259125 566.043823,302.259125 559.909912,302.259125 
	C553.793640,302.259125 547.677429,302.259125 540.933289,302.259125 
	C540.933289,299.953186 540.933289,298.176483 540.933411,295.423767 
M639.325684,227.134552 
	C633.853699,226.813370 628.363098,226.049561 622.914368,226.279724 
	C615.621033,226.587814 608.837891,228.853638 603.520996,234.253662 
	C592.611572,245.333847 595.453369,262.428436 609.659546,269.951141 
	C616.554810,273.602448 623.956787,276.310974 630.782166,280.075745 
	C636.753662,283.369507 638.447693,288.096405 636.984009,293.938751 
	C635.807068,298.636719 630.805420,302.437500 625.057617,303.109436 
	C617.906921,303.945374 611.162720,302.556396 604.649902,299.642365 
	C602.152466,298.525024 599.583252,297.568298 596.776062,296.428497 
	C596.190979,298.498627 595.742004,299.903809 595.403198,301.335083 
	C595.020325,302.952545 594.455688,304.603027 594.511292,306.220551 
	C594.546387,307.240112 595.352844,308.830994 596.188965,309.136078 
	C610.313904,314.290100 624.549866,316.973450 638.600830,309.058136 
	C647.946350,303.793518 651.952271,295.614197 651.044739,284.875244 
	C650.312927,276.215546 644.538452,271.759064 637.630310,268.295441 
	C632.878479,265.912903 627.815552,264.149017 623.073547,261.749268 
	C619.995178,260.191437 616.949158,258.309204 614.418335,255.993439 
	C610.963135,252.831848 609.994507,248.613037 611.582642,244.090347 
	C613.197815,239.490646 616.785583,236.779999 621.430115,237.024567 
	C627.988098,237.369919 634.503113,238.641769 641.016479,239.647415 
	C642.716003,239.909805 644.341187,240.653275 646.230652,241.248276 
	C646.842834,238.847061 647.364807,237.109268 647.716125,235.337677 
	C648.094421,233.430191 648.312744,231.490997 648.645264,229.268768 
	C645.628845,228.550064 642.904846,227.901047 639.325684,227.134552 
z"/>
<path fill="#818181" opacity="1.000000" stroke="none" 
	d="
M903.012695,272.977234 
	C902.803345,322.436554 863.062439,367.293793 813.976929,373.970184 
	C753.573059,382.186035 700.412231,341.995911 693.521729,281.480621 
	C686.784058,222.308426 729.216309,173.633575 782.098938,166.113022 
	C842.047241,157.587616 894.361328,197.515472 902.534363,257.518738 
	C903.204285,262.437103 902.876770,267.491364 903.012695,272.977234 
M865.985413,339.493256 
	C887.693176,317.602722 897.648499,291.129608 894.737976,260.573059 
	C889.487366,205.449051 840.383789,166.954208 785.073303,173.813889 
	C730.989502,180.521439 692.172546,232.925461 702.300903,286.481598 
	C709.297180,323.476349 730.781494,349.497284 766.426514,361.641754 
	C803.198242,374.170074 836.606079,366.166992 865.985413,339.493256 
z"/>
<path fill="#5EABA5" opacity="1.000000" stroke="none" 
	d="
M201.330811,291.678772 
	C201.330795,270.397522 201.330795,249.116302 201.330795,227.473434 
	C205.266571,227.473434 209.146362,227.473434 213.348724,227.473434 
	C213.348724,255.834366 213.348724,284.045868 213.348724,312.855316 
	C209.356079,312.855316 205.556000,313.098602 201.817535,312.725098 
	C200.484909,312.591980 198.936081,311.210632 198.104721,309.980774 
	C184.217377,289.436554 170.384476,268.854980 156.661102,248.200943 
	C154.412170,244.816254 152.741852,241.047134 150.083435,236.120010 
	C150.083435,262.496765 150.083435,287.322632 150.083435,312.510925 
	C146.029724,312.510925 142.314865,312.510925 138.294373,312.510925 
	C138.294373,284.153473 138.294373,255.943573 138.294373,227.121582 
	C144.404175,227.121582 150.351151,226.962799 156.277115,227.245224 
	C157.583099,227.307480 159.225449,228.665894 160.019119,229.880722 
	C173.483078,250.489349 186.837463,271.169556 200.617676,292.185425 
	C201.123154,292.250885 201.226974,291.964813 201.330811,291.678772 
z"/>
<path fill="#5FABA6" opacity="1.000000" stroke="none" 
	d="
M416.009399,267.970215 
	C415.305878,292.080627 400.196686,308.945801 376.780487,312.123962 
	C373.490784,312.570465 370.151245,312.807343 366.831451,312.844208 
	C358.021912,312.942139 349.210510,312.877472 339.988953,312.877472 
	C339.988953,284.300690 339.988953,256.088348 339.988953,227.047028 
	C355.613251,227.633362 371.310333,225.255798 386.559784,229.371490 
	C392.622650,231.007797 398.634674,234.330032 403.589478,238.250229 
	C412.790894,245.530289 416.184570,255.907959 416.009399,267.970215 
M384.547821,240.728485 
	C374.885864,236.362869 364.742584,237.961884 354.489380,237.801849 
	C354.489380,259.508453 354.489380,280.696960 354.489380,301.937744 
	C362.171967,301.937744 369.550964,302.610718 376.760468,301.791656 
	C390.026215,300.284546 398.104431,290.935883 400.534668,274.879150 
	C402.516327,261.786316 398.110870,246.442505 384.547821,240.728485 
z"/>
<path fill="#5FACA6" opacity="1.000000" stroke="none" 
	d="
M233.718948,280.183044 
	C231.100311,261.051849 236.492905,245.238022 252.149963,234.282166 
	C267.370728,223.631592 283.813110,223.075806 300.225159,231.903076 
	C316.394653,240.599869 323.757812,261.078918 317.911011,281.501862 
	C313.230957,297.849182 302.383270,308.615295 285.861206,312.564484 
	C269.958832,316.365570 255.414017,313.059387 243.706787,300.928528 
	C238.262054,295.286774 235.043182,288.390900 233.718948,280.183044 
M300.720825,288.031525 
	C305.648865,277.378632 305.973816,266.512177 301.987183,255.545715 
	C297.834137,244.121368 287.957733,236.507202 276.430176,236.452271 
	C265.010559,236.397873 256.741516,242.078720 251.994797,252.361740 
	C246.694855,263.843231 246.555542,275.593201 251.975784,287.095673 
	C256.861115,297.462982 265.185822,303.420288 276.738007,303.507843 
	C287.481750,303.589264 295.357849,298.221008 300.720825,288.031525 
z"/>
<path fill="#61ADA7" opacity="1.000000" stroke="none" 
	d="
M435.219116,247.000366 
	C435.219269,240.220917 435.219269,233.941315 435.219269,227.387390 
	C440.246002,227.387390 444.673798,227.387390 449.707275,227.387390 
	C449.788818,229.124176 449.940460,230.875732 449.942596,232.627487 
	C449.962585,248.944992 449.852509,265.263428 449.993286,281.579773 
	C450.096344,293.521057 457.446808,302.141693 467.980377,303.137115 
	C481.174408,304.383972 489.895905,296.911011 490.116333,283.532104 
	C490.393341,266.719574 490.201904,249.899307 490.212311,233.082382 
	C490.213409,231.295151 490.212494,229.507935 490.212494,227.412994 
	C494.521790,227.412994 498.286530,227.412994 502.687073,227.412994 
	C502.772736,228.886917 502.942444,230.466690 502.944336,232.046661 
	C502.963379,248.031158 503.010223,264.015961 502.937256,280.000153 
	C502.876038,293.408295 497.618378,304.169434 485.285767,310.090118 
	C472.020111,316.458801 458.534607,315.881439 446.507355,307.080261 
	C438.176056,300.983643 435.406769,291.530640 435.260345,281.466827 
	C435.095642,270.146820 435.220184,258.822601 435.219116,247.000366 
z"/>
<path fill="#63AEA8" opacity="1.000000" stroke="none" 
	d="
M540.933350,295.911774 
	C540.933289,298.176483 540.933289,299.953186 540.933289,302.259125 
	C547.677429,302.259125 553.793640,302.259125 559.909912,302.259125 
	C566.043823,302.259125 572.177734,302.259125 579.099121,302.259125 
	C578.551880,305.619843 578.246582,308.512482 577.513977,311.292542 
	C577.325562,312.007477 575.793762,312.818604 574.874634,312.823914 
	C558.911743,312.916931 542.948242,312.890961 526.571472,312.890961 
	C526.571472,284.354980 526.571472,256.156128 526.571472,227.523743 
	C543.502075,227.523743 560.515320,227.523743 578.204834,227.523743 
	C577.729492,230.431030 577.604248,233.262619 576.680115,235.803696 
	C576.324585,236.781494 574.160461,237.607590 572.804077,237.633118 
	C564.150574,237.796021 555.492493,237.716339 546.835876,237.716476 
	C545.058960,237.716507 543.282043,237.716476 541.222961,237.716476 
	C541.222961,246.387970 541.222961,254.450943 541.222961,263.118103 
	C551.496399,263.118103 561.557678,263.118103 572.205811,263.118103 
	C571.825806,265.711365 571.378723,267.624969 571.299744,269.553650 
	C571.164062,272.867340 569.374451,273.622955 566.386292,273.553528 
	C559.730957,273.398804 553.069458,273.491150 546.410645,273.516479 
	C544.788635,273.522644 543.167175,273.658813 540.933411,273.764069 
	C540.933411,281.195068 540.933411,288.309418 540.933350,295.911774 
z"/>
<path fill="#60ACA6" opacity="1.000000" stroke="none" 
	d="
M639.753296,227.193298 
	C642.904846,227.901047 645.628845,228.550064 648.645264,229.268768 
	C648.312744,231.490997 648.094421,233.430191 647.716125,235.337677 
	C647.364807,237.109268 646.842834,238.847061 646.230652,241.248276 
	C644.341187,240.653275 642.716003,239.909805 641.016479,239.647415 
	C634.503113,238.641769 627.988098,237.369919 621.430115,237.024567 
	C616.785583,236.779999 613.197815,239.490646 611.582642,244.090347 
	C609.994507,248.613037 610.963135,252.831848 614.418335,255.993439 
	C616.949158,258.309204 619.995178,260.191437 623.073547,261.749268 
	C627.815552,264.149017 632.878479,265.912903 637.630310,268.295441 
	C644.538452,271.759064 650.312927,276.215546 651.044739,284.875244 
	C651.952271,295.614197 647.946350,303.793518 638.600830,309.058136 
	C624.549866,316.973450 610.313904,314.290100 596.188965,309.136078 
	C595.352844,308.830994 594.546387,307.240112 594.511292,306.220551 
	C594.455688,304.603027 595.020325,302.952545 595.403198,301.335083 
	C595.742004,299.903809 596.190979,298.498627 596.776062,296.428497 
	C599.583252,297.568298 602.152466,298.525024 604.649902,299.642365 
	C611.162720,302.556396 617.906921,303.945374 625.057617,303.109436 
	C630.805420,302.437500 635.807068,298.636719 636.984009,293.938751 
	C638.447693,288.096405 636.753662,283.369507 630.782166,280.075745 
	C623.956787,276.310974 616.554810,273.602448 609.659546,269.951141 
	C595.453369,262.428436 592.611572,245.333847 603.520996,234.253662 
	C608.837891,228.853638 615.621033,226.587814 622.914368,226.279724 
	C628.363098,226.049561 633.853699,226.813370 639.753296,227.193298 
z"/>
<path fill="#F9F9F9" opacity="1.000000" stroke="none" 
	d="
M865.735107,339.742737 
	C836.606079,366.166992 803.198242,374.170074 766.426514,361.641754 
	C730.781494,349.497284 709.297180,323.476349 702.300903,286.481598 
	C692.172546,232.925461 730.989502,180.521439 785.073303,173.813889 
	C840.383789,166.954208 889.487366,205.449051 894.737976,260.573059 
	C897.648499,291.129608 887.693176,317.602722 865.735107,339.742737 
M784.906067,327.719025 
	C804.229797,327.721375 823.555115,327.589294 842.876160,327.820160 
	C847.729126,327.878143 849.089233,326.315277 849.057983,321.512024 
	C848.857971,290.695343 848.958008,259.876678 848.954895,229.058685 
	C848.953735,217.445114 843.874146,212.323029 832.259888,212.279480 
	C811.105713,212.200180 789.951416,212.127792 768.797119,212.092148 
	C750.555725,212.061417 747.014709,215.779922 746.991882,234.012268 
	C746.986694,238.136002 748.207581,239.734619 752.376648,239.562683 
	C758.117676,239.325928 763.875854,239.503357 770.085754,239.503357 
	C770.085754,242.091049 770.085815,243.891449 770.085815,245.691864 
	C770.085815,267.514343 770.082520,289.336823 770.087341,311.159302 
	C770.089661,321.656769 773.781616,326.033325 784.906067,327.719025 
z"/>
<path fill="#FAFAFA" opacity="1.000000" stroke="none" 
	d="
M201.193268,291.815247 
	C201.226974,291.964813 201.123154,292.250885 200.902161,292.382996 
	C200.784988,292.229034 201.055710,291.951752 201.193268,291.815247 
z"/>
<path fill="#F9F9F9" opacity="1.000000" stroke="none" 
	d="
M384.900574,240.878723 
	C398.110870,246.442505 402.516327,261.786316 400.534668,274.879150 
	C398.104431,290.935883 390.026215,300.284546 376.760468,301.791656 
	C369.550964,302.610718 362.171967,301.937744 354.489380,301.937744 
	C354.489380,280.696960 354.489380,259.508453 354.489380,237.801849 
	C364.742584,237.961884 374.885864,236.362869 384.900574,240.878723 
z"/>
<path fill="#F9F9F9" opacity="1.000000" stroke="none" 
	d="
M300.526245,288.353394 
	C295.357849,298.221008 287.481750,303.589264 276.738007,303.507843 
	C265.185822,303.420288 256.861115,297.462982 251.975784,287.095673 
	C246.555542,275.593201 246.694855,263.843231 251.994797,252.361740 
	C256.741516,242.078720 265.010559,236.397873 276.430176,236.452271 
	C287.957733,236.507202 297.834137,244.121368 301.987183,255.545715 
	C305.973816,266.512177 305.648865,277.378632 300.526245,288.353394 
z"/>
<path fill="#878787" opacity="1.000000" stroke="none" 
	d="
M784.460205,327.710266 
	C773.781616,326.033325 770.089661,321.656769 770.087341,311.159302 
	C770.082520,289.336823 770.085815,267.514343 770.085815,245.691864 
	C770.085815,243.891449 770.085754,242.091049 770.085754,239.503357 
	C763.875854,239.503357 758.117676,239.325928 752.376648,239.562683 
	C748.207581,239.734619 746.986694,238.136002 746.991882,234.012268 
	C747.014709,215.779922 750.555725,212.061417 768.797119,212.092148 
	C789.951416,212.127792 811.105713,212.200180 832.259888,212.279480 
	C843.874146,212.323029 848.953735,217.445114 848.954895,229.058685 
	C848.958008,259.876678 848.857971,290.695343 849.057983,321.512024 
	C849.089233,326.315277 847.729126,327.878143 842.876160,327.820160 
	C823.555115,327.589294 804.229797,327.721375 784.460205,327.710266 
M793.541809,323.806641 
	C810.606140,323.806641 827.670410,323.806641 844.987549,323.806641 
	C844.987549,321.140717 844.987610,319.318115 844.987610,317.495514 
	C844.987671,288.186279 844.988586,258.877045 844.987183,229.567825 
	C844.986694,219.442963 841.770508,216.221191 831.532043,216.200470 
	C817.876709,216.172852 804.221191,216.193527 790.565796,216.193481 
	C784.226074,216.193466 777.886353,216.193481 772.259399,216.193481 
	C772.964600,221.670074 773.949036,225.853592 773.970398,230.042038 
	C774.110535,257.518738 774.026550,284.996490 774.053894,312.473846 
	C774.060852,319.436401 777.203308,322.995300 784.073547,323.695129 
	C786.877014,323.980743 789.729675,323.783813 793.541809,323.806641 
M768.293701,235.223236 
	C770.960999,232.214020 770.873230,223.822403 768.137207,220.261383 
	C765.493042,216.819931 759.885742,215.635559 756.029724,217.704010 
	C751.154419,220.319244 749.524780,227.190033 752.013367,235.274445 
	C757.061096,235.274445 762.196106,235.274445 768.293701,235.223236 
z"/>
<path fill="#F4F4F4" opacity="1.000000" stroke="none" 
	d="
M793.050903,323.806519 
	C789.729675,323.783813 786.877014,323.980743 784.073547,323.695129 
	C777.203308,322.995300 774.060852,319.436401 774.053894,312.473846 
	C774.026550,284.996490 774.110535,257.518738 773.970398,230.042038 
	C773.949036,225.853592 772.964600,221.670074 772.259399,216.193481 
	C777.886353,216.193481 784.226074,216.193466 790.565796,216.193481 
	C804.221191,216.193527 817.876709,216.172852 831.532043,216.200470 
	C841.770508,216.221191 844.986694,219.442963 844.987183,229.567825 
	C844.988586,258.877045 844.987671,288.186279 844.987610,317.495514 
	C844.987610,319.318115 844.987549,321.140717 844.987549,323.806641 
	C827.670410,323.806641 810.606140,323.806641 793.050903,323.806519 
M777.947327,269.500000 
	C777.947266,280.815857 778.397949,292.154968 777.816528,303.440857 
	C777.268860,314.072357 783.956604,320.205475 794.231506,319.996704 
	C807.705200,319.722931 821.193237,319.727814 834.665405,320.036194 
	C839.597656,320.149078 841.265808,318.886902 841.212891,313.680481 
	C840.948975,287.723175 841.097473,261.761749 841.090210,235.801773 
	C841.087280,225.362762 836.020508,220.154129 825.572388,220.092072 
	C811.427979,220.008087 797.280518,220.211639 783.139221,219.985687 
	C778.809937,219.916504 777.823608,221.596252 777.874878,225.567123 
	C778.059692,239.876007 777.947327,254.188736 777.947327,269.500000 
z"/>
<path fill="#F9F9F9" opacity="1.000000" stroke="none" 
	d="
M767.812378,235.248840 
	C762.196106,235.274445 757.061096,235.274445 752.013367,235.274445 
	C749.524780,227.190033 751.154419,220.319244 756.029724,217.704010 
	C759.885742,215.635559 765.493042,216.819931 768.137207,220.261383 
	C770.873230,223.822403 770.960999,232.214020 767.812378,235.248840 
z"/>
<path fill="#858585" opacity="1.000000" stroke="none" 
	d="
M777.947266,269.000000 
	C777.947327,254.188736 778.059692,239.876007 777.874878,225.567123 
	C777.823608,221.596252 778.809937,219.916504 783.139221,219.985687 
	C797.280518,220.211639 811.427979,220.008087 825.572388,220.092072 
	C836.020508,220.154129 841.087280,225.362762 841.090210,235.801773 
	C841.097473,261.761749 840.948975,287.723175 841.212891,313.680481 
	C841.265808,318.886902 839.597656,320.149078 834.665405,320.036194 
	C821.193237,319.727814 807.705200,319.722931 794.231506,319.996704 
	C783.956604,320.205475 777.268860,314.072357 777.816528,303.440857 
	C778.397949,292.154968 777.947266,280.815857 777.947266,269.000000 
M825.163330,224.021942 
	C810.892639,224.021942 796.621948,224.021942 782.127075,224.021942 
	C782.024353,226.047989 781.886414,227.508835 781.885681,228.969742 
	C781.872681,254.118271 781.865295,279.266815 781.883301,304.415344 
	C781.889038,312.451019 785.285400,315.874603 793.436340,315.959778 
	C801.263184,316.041565 809.091492,315.978241 816.919189,315.978455 
	C823.527222,315.978638 830.135254,315.978485 837.169006,315.978485 
	C837.169006,313.725281 837.168945,312.094727 837.168945,310.464203 
	C837.169067,285.648773 837.176147,260.833313 837.165466,236.017868 
	C837.161865,227.503647 834.699036,224.863358 825.163330,224.021942 
z"/>
<path fill="#F9F9F9" opacity="1.000000" stroke="none" 
	d="
M825.618347,224.022720 
	C834.699036,224.863358 837.161865,227.503647 837.165466,236.017868 
	C837.176147,260.833313 837.169067,285.648773 837.168945,310.464203 
	C837.168945,312.094727 837.169006,313.725281 837.169006,315.978485 
	C830.135254,315.978485 823.527222,315.978638 816.919189,315.978455 
	C809.091492,315.978241 801.263184,316.041565 793.436340,315.959778 
	C785.285400,315.874603 781.889038,312.451019 781.883301,304.415344 
	C781.865295,279.266815 781.872681,254.118271 781.885681,228.969742 
	C781.886414,227.508835 782.024353,226.047989 782.127075,224.021942 
	C796.621948,224.021942 810.892639,224.021942 825.618347,224.022720 
M796.034607,290.130402 
	C797.735596,292.547180 799.436584,294.963959 801.136169,297.378754 
	C800.450134,299.437805 799.579346,301.564301 799.107849,303.775909 
	C798.973450,304.406372 799.879150,305.745819 800.526978,305.913513 
	C801.128662,306.069214 802.582214,305.201050 802.695129,304.601776 
	C803.319031,301.289276 804.679932,299.039703 808.462646,298.983765 
	C812.224426,298.928192 813.715210,301.070312 814.417664,304.397339 
	C814.558899,305.065979 815.795288,305.503418 816.526794,306.047516 
	C817.039124,305.150269 818.108276,304.144104 817.958130,303.376434 
	C817.529114,301.184021 816.604492,299.088593 815.893066,297.008118 
	C822.660767,290.294769 823.874512,284.168335 819.745422,277.919830 
	C816.165649,272.502380 809.259216,270.546753 802.951355,273.164276 
	C797.097168,275.593567 794.130920,282.306335 796.034607,290.130402 
M827.237793,243.115921 
	C829.272583,242.540512 831.307312,241.965088 833.342102,241.389679 
	C831.255127,240.644287 829.178650,239.290527 827.079346,239.254074 
	C815.136047,239.046631 803.185791,239.062927 791.241943,239.252335 
	C789.467712,239.280457 787.714478,240.628448 785.951538,241.365829 
	C787.621155,241.949051 789.284729,243.016754 790.961365,243.037674 
	C802.740540,243.184692 814.522339,243.115936 827.237793,243.115921 
M810.500000,250.929825 
	C816.806213,250.928421 823.116638,251.045761 829.415161,250.824615 
	C830.663330,250.780792 831.865784,249.437241 833.089355,248.693054 
	C831.877747,248.122864 830.670471,247.067825 829.453857,247.056931 
	C816.178650,246.937897 802.901611,246.938385 789.626282,247.054764 
	C788.397339,247.065552 787.177368,248.095474 785.953186,248.652161 
	C787.164001,249.410141 788.354492,250.782944 789.588928,250.823578 
	C796.219910,251.041809 802.861877,250.928543 810.500000,250.929825 
M794.007935,255.190002 
	C792.272888,258.777100 795.035828,258.671753 797.093872,258.695282 
	C805.406921,258.790283 813.722778,258.805237 822.034424,258.663147 
	C823.389587,258.640015 824.728577,257.676575 826.075073,257.147736 
	C825.995544,256.421448 825.916016,255.695129 825.836426,254.968842 
	C815.510010,254.007263 805.122070,254.267746 794.007935,255.190002 
M818.373596,265.665497 
	C818.470764,266.129059 818.539795,266.989624 818.669189,266.998810 
	C823.180420,267.318268 827.696228,267.602081 832.215820,267.718811 
	C832.557434,267.727661 833.315613,266.379974 833.188782,265.819275 
	C833.047119,265.192993 832.102661,264.278076 831.530640,264.294464 
	C827.300537,264.415527 823.076233,264.737579 818.373596,265.665497 
M805.012573,227.927094 
	C804.373047,228.524185 803.733582,229.121277 803.094055,229.718384 
	C803.884583,230.395767 804.624512,231.571182 805.475098,231.657547 
	C808.075012,231.921600 810.741028,231.969772 813.330872,231.668625 
	C814.281006,231.558151 815.090088,230.234894 815.963501,229.464920 
	C815.073120,228.938675 814.215576,228.040558 813.285889,227.958359 
	C810.841492,227.742188 808.365723,227.881104 805.012573,227.927094 
z"/>
<path fill="#848484" opacity="1.000000" stroke="none" 
	d="
M795.910034,289.755890 
	C794.130920,282.306335 797.097168,275.593567 802.951355,273.164276 
	C809.259216,270.546753 816.165649,272.502380 819.745422,277.919830 
	C823.874512,284.168335 822.660767,290.294769 815.893066,297.008118 
	C816.604492,299.088593 817.529114,301.184021 817.958130,303.376434 
	C818.108276,304.144104 817.039124,305.150269 816.526733,306.047485 
	C815.795288,305.503418 814.558899,305.065979 814.417664,304.397339 
	C813.715210,301.070312 812.224426,298.928192 808.462646,298.983765 
	C804.679932,299.039703 803.319031,301.289276 802.695129,304.601776 
	C802.582214,305.201050 801.128662,306.069214 800.526978,305.913513 
	C799.879150,305.745819 798.973450,304.406372 799.107849,303.775909 
	C799.579346,301.564301 800.450134,299.437805 801.136169,297.378754 
	C799.436584,294.963959 797.735596,292.547180 795.910034,289.755890 
M811.694092,276.317139 
	C803.562683,273.538849 796.914978,281.898743 799.563782,288.442566 
	C801.348267,292.851105 804.726440,294.977264 809.218323,294.744751 
	C813.541504,294.520966 816.806396,292.040527 817.805298,287.710114 
	C818.941467,282.784698 817.014160,278.978119 811.694092,276.317139 
z"/>
<path fill="#878787" opacity="1.000000" stroke="none" 
	d="
M826.770569,243.116028 
	C814.522339,243.115936 802.740540,243.184692 790.961365,243.037674 
	C789.284729,243.016754 787.621155,241.949051 785.951538,241.365829 
	C787.714478,240.628448 789.467712,239.280457 791.241943,239.252335 
	C803.185791,239.062927 815.136047,239.046631 827.079346,239.254074 
	C829.178650,239.290527 831.255127,240.644287 833.342102,241.389679 
	C831.307312,241.965088 829.272583,242.540512 826.770569,243.116028 
z"/>
<path fill="#848484" opacity="1.000000" stroke="none" 
	d="
M810.000000,250.929794 
	C802.861877,250.928543 796.219910,251.041809 789.588928,250.823578 
	C788.354492,250.782944 787.164001,249.410141 785.953186,248.652161 
	C787.177368,248.095474 788.397339,247.065552 789.626282,247.054764 
	C802.901611,246.938385 816.178650,246.937897 829.453857,247.056931 
	C830.670471,247.067825 831.877747,248.122864 833.089355,248.693054 
	C831.865784,249.437241 830.663330,250.780792 829.415161,250.824615 
	C823.116638,251.045761 816.806213,250.928421 810.000000,250.929794 
z"/>
<path fill="#8D8D8D" opacity="1.000000" stroke="none" 
	d="
M794.363586,255.006805 
	C805.122070,254.267746 815.510010,254.007263 825.836426,254.968842 
	C825.916016,255.695129 825.995544,256.421448 826.075073,257.147736 
	C824.728577,257.676575 823.389587,258.640015 822.034424,258.663147 
	C813.722778,258.805237 805.406921,258.790283 797.093872,258.695282 
	C795.035828,258.671753 792.272888,258.777100 794.363586,255.006805 
z"/>
<path fill="#878787" opacity="1.000000" stroke="none" 
	d="
M818.611816,265.330933 
	C823.076233,264.737579 827.300537,264.415527 831.530640,264.294464 
	C832.102661,264.278076 833.047119,265.192993 833.188782,265.819275 
	C833.315613,266.379974 832.557434,267.727661 832.215820,267.718811 
	C827.696228,267.602081 823.180420,267.318268 818.669189,266.998810 
	C818.539795,266.989624 818.470764,266.129059 818.611816,265.330933 
z"/>
<path fill="#878787" opacity="1.000000" stroke="none" 
	d="
M805.457520,227.902832 
	C808.365723,227.881104 810.841492,227.742188 813.285889,227.958359 
	C814.215576,228.040558 815.073120,228.938675 815.963501,229.464905 
	C815.090088,230.234894 814.281006,231.558151 813.330872,231.668625 
	C810.741028,231.969772 808.075012,231.921600 805.475098,231.657547 
	C804.624512,231.571182 803.884583,230.395767 803.094055,229.718384 
	C803.733582,229.121277 804.373047,228.524185 805.457520,227.902832 
z"/>
<path fill="#F4F4F4" opacity="1.000000" stroke="none" 
	d="
M812.055237,276.488403 
	C817.014160,278.978119 818.941467,282.784698 817.805298,287.710114 
	C816.806396,292.040527 813.541504,294.520966 809.218323,294.744751 
	C804.726440,294.977264 801.348267,292.851105 799.563782,288.442566 
	C796.914978,281.898743 803.562683,273.538849 812.055237,276.488403 
M812.115173,284.584045 
	C810.465332,283.736206 808.876892,282.594757 807.126282,282.228943 
	C806.635193,282.126312 804.924927,284.440857 805.100708,285.404694 
	C805.335266,286.690735 807.314758,288.867645 807.758545,288.690613 
	C809.408142,288.032654 810.735718,286.567169 812.115173,284.584045 
z"/>
<path fill="#848484" opacity="1.000000" stroke="none" 
	d="
M812.149658,284.994446 
	C810.735718,286.567169 809.408142,288.032654 807.758545,288.690613 
	C807.314758,288.867645 805.335266,286.690735 805.100708,285.404694 
	C804.924927,284.440857 806.635193,282.126312 807.126282,282.228943 
	C808.876892,282.594757 810.465332,283.736206 812.149658,284.994446 
z"/>
</svg>